<svg width="98" height="86" viewBox="0 0 98 86" fill="none" xmlns="http://www.w3.org/2000/svg">
<path d="M43.3518 11.683C46.0895 19.9191 43.2943 28.232 37.1106 30.267C30.9268 32.3021 23.69 27.2721 20.9523 19.036C18.2146 10.7998 21.0097 2.48693 27.1935 0.4519C33.3773 -1.58313 40.6141 3.44685 43.3518 11.683ZM19.2101 31.9757C22.8285 38.196 21.9478 45.4338 17.2573 48.1215C12.5669 50.8093 5.82787 47.9488 2.22864 41.7285C-1.3706 35.5082 -0.528223 28.2704 4.16227 25.5826C8.85276 22.8948 15.5917 25.7554 19.191 31.9757H19.2101ZM13.2369 70.8717C23.2688 43.7443 41.0927 36.8521 48.9995 36.8521C56.9063 36.8521 74.7302 43.7443 84.7621 70.8717C85.4513 72.7339 85.7576 74.7305 85.7576 76.7272V77.0343C85.7576 81.9875 81.7564 86 76.817 86C74.6153 86 72.4328 85.7312 70.3077 85.1937L53.4603 80.97C50.5311 80.2405 47.4679 80.2405 44.5388 80.97L27.6913 85.1937C25.5662 85.7312 23.3837 86 21.182 86C16.2427 86 12.2414 81.9875 12.2414 77.0343V76.7272C12.2414 74.7305 12.5477 72.7339 13.2369 70.8717ZM80.7417 48.1215C76.0512 45.4338 75.1705 38.196 78.7889 31.9757C82.4073 25.7554 89.1271 22.8948 93.8176 25.5826C98.5081 28.2704 99.3888 35.5082 95.7704 41.7285C92.152 47.9488 85.4322 50.8093 80.7417 48.1215ZM59.3569 30.267C53.1731 28.232 50.3779 19.9191 53.1157 11.683C55.8534 3.44685 63.0901 -1.58313 69.2739 0.4519C75.4577 2.48693 78.2529 10.7998 75.5151 19.036C72.7774 27.2721 65.5407 32.3021 59.3569 30.267Z" fill="#39604C"/>
</svg>
