<svg width="86" height="97" viewBox="0 0 86 97" fill="none" xmlns="http://www.w3.org/2000/svg">
<path d="M40.4277 1.11777L11.9018 32.0934C11.1531 32.8891 10.75 33.95 10.75 35.0299C10.75 37.4549 12.7272 39.4062 15.1844 39.4062H19.9643L5.87411 53.3121C5.06786 54.1078 4.60714 55.2066 4.60714 56.3434C4.60714 58.7115 6.54598 60.625 8.94554 60.625H15.3571L1.03661 77.5811C0.364732 78.3768 0 79.3809 0 80.4229C0 82.8857 2.01563 84.875 4.51116 84.875H36.8571V90.9375C36.8571 94.2908 39.6022 97 43 97C46.3978 97 49.1429 94.2908 49.1429 90.9375V84.875H81.4888C83.9844 84.875 86 82.8857 86 80.4229C86 79.3809 85.6353 78.3768 84.9634 77.5811L70.6429 60.625H77.0545C79.454 60.625 81.3929 58.7115 81.3929 56.3434C81.3929 55.2066 80.9321 54.1078 80.1259 53.3121L66.0357 39.4062H70.8156C73.2536 39.4062 75.25 37.4549 75.25 35.0299C75.25 33.95 74.8469 32.8891 74.0982 32.0934L45.5723 1.11777C44.9196 0.397852 43.979 0 43 0C42.021 0 41.0804 0.397852 40.4277 1.11777Z" fill="#39604C"/>
</svg>
