<svg width="110" height="98" viewBox="0 0 110 98" fill="none" xmlns="http://www.w3.org/2000/svg">
<path d="M47.3611 0H39.7222C34.6615 0 30.5556 4.11523 30.5556 9.1875V30.625C30.5556 37.3816 36.0365 42.875 42.7778 42.875H67.2222C73.9635 42.875 79.4444 37.3816 79.4444 30.625V9.1875C79.4444 4.11523 75.3385 0 70.2778 0H62.6389V15.3125C62.6389 16.9969 61.2639 18.375 59.5833 18.375H50.4167C48.7361 18.375 47.3611 16.9969 47.3611 15.3125V0ZM12.2222 49C5.4809 49 0 54.4934 0 61.25V85.75C0 92.5066 5.4809 98 12.2222 98H42.7778C49.5191 98 55 92.5066 55 85.75V61.25C55 54.4934 49.5191 49 42.7778 49H35.1389V64.3125C35.1389 65.9969 33.7639 67.375 32.0833 67.375H22.9167C21.2361 67.375 19.8611 65.9969 19.8611 64.3125V49H12.2222ZM67.2222 98H97.7778C104.519 98 110 92.5066 110 85.75V61.25C110 54.4934 104.519 49 97.7778 49H90.1389V64.3125C90.1389 65.9969 88.7639 67.375 87.0833 67.375H77.9167C76.2361 67.375 74.8611 65.9969 74.8611 64.3125V49H67.2222C64.3576 49 61.7222 49.9762 59.6406 51.6414C60.5764 53.632 61.1111 55.8523 61.1111 58.1875V88.8125C61.1111 91.1477 60.5764 93.368 59.6406 95.3586C61.7222 97.0238 64.3576 98 67.2222 98Z" fill="#39604C"/>
</svg>
