<svg width="86" height="86" viewBox="0 0 86 86" fill="none" xmlns="http://www.w3.org/2000/svg">
<path d="M30.7143 9.21429C30.7143 4.12723 34.8415 0 39.9286 0H46.0714C51.1585 0 55.2857 4.12723 55.2857 9.21429V76.7857C55.2857 81.8728 51.1585 86 46.0714 86H39.9286C34.8415 86 30.7143 81.8728 30.7143 76.7857V9.21429ZM0 46.0714C0 40.9844 4.12723 36.8571 9.21429 36.8571H15.3571C20.4442 36.8571 24.5714 40.9844 24.5714 46.0714V76.7857C24.5714 81.8728 20.4442 86 15.3571 86H9.21429C4.12723 86 0 81.8728 0 76.7857V46.0714ZM70.6429 12.2857H76.7857C81.8728 12.2857 86 16.4129 86 21.5V76.7857C86 81.8728 81.8728 86 76.7857 86H70.6429C65.5558 86 61.4286 81.8728 61.4286 76.7857V21.5C61.4286 16.4129 65.5558 12.2857 70.6429 12.2857Z" fill="#39604C"/>
</svg>
