<svg width="85" height="100" viewBox="0 0 85 100" fill="none" xmlns="http://www.w3.org/2000/svg">
<path d="M42.5 50C48.941 50 55.1181 47.3661 59.6726 42.6777C64.2271 37.9893 66.7857 31.6304 66.7857 25C66.7857 18.3696 64.2271 12.0107 59.6726 7.32233C55.1181 2.63392 48.941 0 42.5 0C36.059 0 29.8819 2.63392 25.3274 7.32233C20.773 12.0107 18.2143 18.3696 18.2143 25C18.2143 31.6304 20.773 37.9893 25.3274 42.6777C29.8819 47.3661 36.059 50 42.5 50ZM33.8292 59.375C15.1406 59.375 0 74.9609 0 94.1992C0 97.4023 2.52344 100 5.63505 100H79.365C82.4766 100 85 97.4023 85 94.1992C85 74.9609 69.8594 59.375 51.1708 59.375H33.8292Z" fill="#39604C"/>
</svg>
